<mxfile host="app.diagrams.net" agent="Mozilla/5.0 (Windows NT 10.0; Win64; x64) AppleWebKit/537.36 (KHTML, like Gecko) Chrome/140.0.0.0 Safari/537.36 Edg/140.0.0.0" version="28.2.5">
  <diagram name="Page-1" id="cND-msEmDqJcG1_ZPeND">
    <mxGraphModel dx="3393" dy="2090" grid="1" gridSize="10" guides="1" tooltips="1" connect="1" arrows="1" fold="1" page="1" pageScale="1" pageWidth="850" pageHeight="1100" math="0" shadow="0">
      <root>
        <mxCell id="0" />
        <mxCell id="1" parent="0" />
        <mxCell id="dUrUMToWnGyHjIhhfSOw-20" value="VPC" style="points=[[0,0],[0.25,0],[0.5,0],[0.75,0],[1,0],[1,0.25],[1,0.5],[1,0.75],[1,1],[0.75,1],[0.5,1],[0.25,1],[0,1],[0,0.75],[0,0.5],[0,0.25]];outlineConnect=0;gradientColor=none;html=1;whiteSpace=wrap;fontSize=12;fontStyle=0;container=1;pointerEvents=0;collapsible=0;recursiveResize=0;shape=mxgraph.aws4.group;grIcon=mxgraph.aws4.group_vpc2;strokeColor=#8C4FFF;fillColor=none;verticalAlign=top;align=left;spacingLeft=30;fontColor=#AAB7B8;dashed=0;" vertex="1" parent="1">
          <mxGeometry x="-360" y="90" width="1030" height="1350" as="geometry" />
        </mxCell>
        <mxCell id="dUrUMToWnGyHjIhhfSOw-23" value="" style="outlineConnect=0;dashed=0;verticalLabelPosition=bottom;verticalAlign=top;align=center;html=1;shape=mxgraph.aws3.http_protocol;fillColor=#5294CF;gradientColor=none;" vertex="1" parent="dUrUMToWnGyHjIhhfSOw-20">
          <mxGeometry x="260" y="120" width="63" height="66" as="geometry" />
        </mxCell>
        <mxCell id="dUrUMToWnGyHjIhhfSOw-16" value="" style="outlineConnect=0;dashed=0;verticalLabelPosition=bottom;verticalAlign=top;align=center;html=1;shape=mxgraph.aws3.internet_gateway;fillColor=#F58536;gradientColor=none;" vertex="1" parent="dUrUMToWnGyHjIhhfSOw-20">
          <mxGeometry x="60" y="154" width="69" height="72" as="geometry" />
        </mxCell>
        <mxCell id="dUrUMToWnGyHjIhhfSOw-46" value="&lt;font style=&quot;font-size: 18px;&quot;&gt;Future Subnet&lt;/font&gt;" style="shape=mxgraph.ibm.box;prType=subnet;fontStyle=0;verticalAlign=top;align=left;spacingLeft=32;spacingTop=4;fillColor=#E6F0E2;rounded=0;whiteSpace=wrap;html=1;strokeColor=#00882B;strokeWidth=1;dashed=0;container=1;spacing=-4;collapsible=0;expand=0;recursiveResize=0;" vertex="1" parent="dUrUMToWnGyHjIhhfSOw-20">
          <mxGeometry x="360" y="860" width="410" height="310" as="geometry" />
        </mxCell>
        <mxCell id="dUrUMToWnGyHjIhhfSOw-4" value="Public subnet - 4000 servers&lt;div&gt;SSH from Internet&lt;/div&gt;&lt;div&gt;HTTP from Internet&lt;/div&gt;" style="points=[[0,0],[0.25,0],[0.5,0],[0.75,0],[1,0],[1,0.25],[1,0.5],[1,0.75],[1,1],[0.75,1],[0.5,1],[0.25,1],[0,1],[0,0.75],[0,0.5],[0,0.25]];outlineConnect=0;gradientColor=none;html=1;whiteSpace=wrap;fontSize=12;fontStyle=0;container=1;pointerEvents=0;collapsible=0;recursiveResize=0;shape=mxgraph.aws4.group;grIcon=mxgraph.aws4.group_security_group;grStroke=0;strokeColor=#7AA116;fillColor=#F2F6E8;verticalAlign=top;align=left;spacingLeft=30;fontColor=#248814;dashed=0;" vertex="1" parent="1">
          <mxGeometry y="160" width="400" height="240" as="geometry" />
        </mxCell>
        <mxCell id="dUrUMToWnGyHjIhhfSOw-6" value="" style="image;aspect=fixed;perimeter=ellipsePerimeter;html=1;align=center;shadow=0;dashed=0;spacingTop=3;image=img/lib/active_directory/web_server.svg;" vertex="1" parent="dUrUMToWnGyHjIhhfSOw-4">
          <mxGeometry x="20" y="130" width="40" height="50" as="geometry" />
        </mxCell>
        <mxCell id="dUrUMToWnGyHjIhhfSOw-8" value="" style="image;aspect=fixed;perimeter=ellipsePerimeter;html=1;align=center;shadow=0;dashed=0;spacingTop=3;image=img/lib/active_directory/web_server.svg;" vertex="1" parent="dUrUMToWnGyHjIhhfSOw-4">
          <mxGeometry x="90" y="70" width="40" height="50" as="geometry" />
        </mxCell>
        <mxCell id="dUrUMToWnGyHjIhhfSOw-7" value="" style="image;aspect=fixed;perimeter=ellipsePerimeter;html=1;align=center;shadow=0;dashed=0;spacingTop=3;image=img/lib/active_directory/web_server.svg;" vertex="1" parent="dUrUMToWnGyHjIhhfSOw-4">
          <mxGeometry x="190" y="80" width="40" height="50" as="geometry" />
        </mxCell>
        <mxCell id="dUrUMToWnGyHjIhhfSOw-5" value="&lt;font style=&quot;font-size: 18px;&quot;&gt;Private subnet - 4000 database&lt;/font&gt;&lt;div&gt;&lt;font size=&quot;3&quot;&gt;SSH from Web servers&lt;/font&gt;&lt;/div&gt;" style="points=[[0,0],[0.25,0],[0.5,0],[0.75,0],[1,0],[1,0.25],[1,0.5],[1,0.75],[1,1],[0.75,1],[0.5,1],[0.25,1],[0,1],[0,0.75],[0,0.5],[0,0.25]];outlineConnect=0;gradientColor=none;html=1;whiteSpace=wrap;fontSize=12;fontStyle=0;container=1;pointerEvents=0;collapsible=0;recursiveResize=0;shape=mxgraph.aws4.group;grIcon=mxgraph.aws4.group_security_group;grStroke=0;strokeColor=#00A4A6;fillColor=#E6F6F7;verticalAlign=top;align=left;spacingLeft=30;fontColor=#147EBA;dashed=0;" vertex="1" parent="1">
          <mxGeometry x="-10" y="600" width="390" height="240" as="geometry" />
        </mxCell>
        <mxCell id="dUrUMToWnGyHjIhhfSOw-12" value="" style="sketch=0;points=[[0,0,0],[0.25,0,0],[0.5,0,0],[0.75,0,0],[1,0,0],[0,1,0],[0.25,1,0],[0.5,1,0],[0.75,1,0],[1,1,0],[0,0.25,0],[0,0.5,0],[0,0.75,0],[1,0.25,0],[1,0.5,0],[1,0.75,0]];outlineConnect=0;fontColor=#232F3E;fillColor=#C925D1;strokeColor=#ffffff;dashed=0;verticalLabelPosition=bottom;verticalAlign=top;align=center;html=1;fontSize=12;fontStyle=0;aspect=fixed;shape=mxgraph.aws4.resourceIcon;resIcon=mxgraph.aws4.rds;" vertex="1" parent="dUrUMToWnGyHjIhhfSOw-5">
          <mxGeometry x="50" y="160" width="78" height="78" as="geometry" />
        </mxCell>
        <mxCell id="dUrUMToWnGyHjIhhfSOw-15" value="" style="sketch=0;points=[[0,0,0],[0.25,0,0],[0.5,0,0],[0.75,0,0],[1,0,0],[0,1,0],[0.25,1,0],[0.5,1,0],[0.75,1,0],[1,1,0],[0,0.25,0],[0,0.5,0],[0,0.75,0],[1,0.25,0],[1,0.5,0],[1,0.75,0]];outlineConnect=0;fontColor=#232F3E;fillColor=#C925D1;strokeColor=#ffffff;dashed=0;verticalLabelPosition=bottom;verticalAlign=top;align=center;html=1;fontSize=12;fontStyle=0;aspect=fixed;shape=mxgraph.aws4.resourceIcon;resIcon=mxgraph.aws4.rds;" vertex="1" parent="dUrUMToWnGyHjIhhfSOw-5">
          <mxGeometry x="190" y="160" width="78" height="78" as="geometry" />
        </mxCell>
        <mxCell id="dUrUMToWnGyHjIhhfSOw-9" value="" style="image;aspect=fixed;perimeter=ellipsePerimeter;html=1;align=center;shadow=0;dashed=0;spacingTop=3;image=img/lib/active_directory/web_server.svg;" vertex="1" parent="1">
          <mxGeometry x="290" y="320" width="40" height="50" as="geometry" />
        </mxCell>
        <mxCell id="dUrUMToWnGyHjIhhfSOw-17" style="edgeStyle=orthogonalEdgeStyle;rounded=0;orthogonalLoop=1;jettySize=auto;html=1;entryX=0;entryY=0.5;entryDx=0;entryDy=0;" edge="1" parent="1" source="dUrUMToWnGyHjIhhfSOw-16" target="dUrUMToWnGyHjIhhfSOw-4">
          <mxGeometry relative="1" as="geometry" />
        </mxCell>
        <mxCell id="dUrUMToWnGyHjIhhfSOw-19" style="edgeStyle=orthogonalEdgeStyle;rounded=0;orthogonalLoop=1;jettySize=auto;html=1;" edge="1" parent="1" source="dUrUMToWnGyHjIhhfSOw-4">
          <mxGeometry relative="1" as="geometry">
            <mxPoint x="201" y="600" as="targetPoint" />
          </mxGeometry>
        </mxCell>
        <mxCell id="dUrUMToWnGyHjIhhfSOw-21" value="SSH Key" style="shape=rect;fillColor=#FA4D56;aspect=fixed;resizable=0;labelPosition=center;verticalLabelPosition=bottom;align=center;verticalAlign=top;strokeColor=none;fontSize=14;" vertex="1" parent="1">
          <mxGeometry x="210" y="490" width="48" height="48" as="geometry" />
        </mxCell>
        <mxCell id="dUrUMToWnGyHjIhhfSOw-22" value="" style="fillColor=#ffffff;strokeColor=none;dashed=0;outlineConnect=0;html=1;labelPosition=center;verticalLabelPosition=bottom;verticalAlign=top;part=1;movable=0;resizable=0;rotatable=0;shape=mxgraph.ibm_cloud.password" vertex="1" parent="dUrUMToWnGyHjIhhfSOw-21">
          <mxGeometry width="24" height="24" relative="1" as="geometry">
            <mxPoint x="12" y="12" as="offset" />
          </mxGeometry>
        </mxCell>
        <mxCell id="dUrUMToWnGyHjIhhfSOw-52" value="" style="edgeStyle=orthogonalEdgeStyle;rounded=0;orthogonalLoop=1;jettySize=auto;html=1;" edge="1" parent="1" source="dUrUMToWnGyHjIhhfSOw-48">
          <mxGeometry relative="1" as="geometry">
            <mxPoint x="-290.0050000000001" y="310" as="targetPoint" />
          </mxGeometry>
        </mxCell>
        <mxCell id="dUrUMToWnGyHjIhhfSOw-48" value="" style="sketch=0;aspect=fixed;pointerEvents=1;shadow=0;dashed=0;html=1;strokeColor=none;labelPosition=center;verticalLabelPosition=bottom;verticalAlign=top;align=center;fillColor=#00188D;shape=mxgraph.azure.laptop" vertex="1" parent="1">
          <mxGeometry x="-830" y="210" width="333.33" height="200" as="geometry" />
        </mxCell>
        <mxCell id="dUrUMToWnGyHjIhhfSOw-50" value="Region" style="points=[[0,0],[0.25,0],[0.5,0],[0.75,0],[1,0],[1,0.25],[1,0.5],[1,0.75],[1,1],[0.75,1],[0.5,1],[0.25,1],[0,1],[0,0.75],[0,0.5],[0,0.25]];outlineConnect=0;gradientColor=none;html=1;whiteSpace=wrap;fontSize=12;fontStyle=0;container=1;pointerEvents=0;collapsible=0;recursiveResize=0;shape=mxgraph.aws4.group;grIcon=mxgraph.aws4.group_region;strokeColor=#FF3333;fillColor=none;verticalAlign=top;align=left;spacingLeft=30;fontColor=#147EBA;dashed=1;" vertex="1" parent="1">
          <mxGeometry x="-470" y="30" width="1240" height="1520" as="geometry" />
        </mxCell>
        <mxCell id="dUrUMToWnGyHjIhhfSOw-11" value="" style="sketch=0;points=[[0,0,0],[0.25,0,0],[0.5,0,0],[0.75,0,0],[1,0,0],[0,1,0],[0.25,1,0],[0.5,1,0],[0.75,1,0],[1,1,0],[0,0.25,0],[0,0.5,0],[0,0.75,0],[1,0.25,0],[1,0.5,0],[1,0.75,0]];outlineConnect=0;fontColor=#232F3E;fillColor=#C925D1;strokeColor=#ffffff;dashed=0;verticalLabelPosition=bottom;verticalAlign=top;align=center;html=1;fontSize=12;fontStyle=0;aspect=fixed;shape=mxgraph.aws4.resourceIcon;resIcon=mxgraph.aws4.rds;" vertex="1" parent="dUrUMToWnGyHjIhhfSOw-50">
          <mxGeometry x="482" y="630" width="78" height="78" as="geometry" />
        </mxCell>
        <mxCell id="dUrUMToWnGyHjIhhfSOw-13" value="" style="sketch=0;points=[[0,0,0],[0.25,0,0],[0.5,0,0],[0.75,0,0],[1,0,0],[0,1,0],[0.25,1,0],[0.5,1,0],[0.75,1,0],[1,1,0],[0,0.25,0],[0,0.5,0],[0,0.75,0],[1,0.25,0],[1,0.5,0],[1,0.75,0]];outlineConnect=0;fontColor=#232F3E;fillColor=#C925D1;strokeColor=#ffffff;dashed=0;verticalLabelPosition=bottom;verticalAlign=top;align=center;html=1;fontSize=12;fontStyle=0;aspect=fixed;shape=mxgraph.aws4.resourceIcon;resIcon=mxgraph.aws4.rds;" vertex="1" parent="dUrUMToWnGyHjIhhfSOw-50">
          <mxGeometry x="660" y="640" width="78" height="78" as="geometry" />
        </mxCell>
        <mxCell id="dUrUMToWnGyHjIhhfSOw-54" value="&lt;font style=&quot;font-size: 48px;&quot;&gt;VPC -&amp;nbsp;192.168.0.0/16&amp;nbsp;&lt;/font&gt;" style="points=[[0,0],[0.25,0],[0.5,0],[0.75,0],[1,0],[1,0.25],[1,0.5],[1,0.75],[1,1],[0.75,1],[0.5,1],[0.25,1],[0,1],[0,0.75],[0,0.5],[0,0.25]];outlineConnect=0;gradientColor=none;html=1;whiteSpace=wrap;fontSize=12;fontStyle=0;container=1;pointerEvents=0;collapsible=0;recursiveResize=0;shape=mxgraph.aws4.group;grIcon=mxgraph.aws4.group_vpc2;strokeColor=#8C4FFF;fillColor=none;verticalAlign=top;align=left;spacingLeft=30;fontColor=#AAB7B8;dashed=0;" vertex="1" parent="1">
          <mxGeometry x="-470" y="2650" width="1260" height="1360" as="geometry" />
        </mxCell>
        <mxCell id="dUrUMToWnGyHjIhhfSOw-70" value="" style="edgeStyle=orthogonalEdgeStyle;rounded=0;orthogonalLoop=1;jettySize=auto;html=1;entryX=0.5;entryY=0;entryDx=0;entryDy=0;entryPerimeter=0;" edge="1" parent="1" source="dUrUMToWnGyHjIhhfSOw-71" target="dUrUMToWnGyHjIhhfSOw-56">
          <mxGeometry relative="1" as="geometry">
            <mxPoint x="-280.0050000000001" y="2870" as="targetPoint" />
            <Array as="points">
              <mxPoint x="-653" y="2750" />
              <mxPoint x="130" y="2750" />
            </Array>
          </mxGeometry>
        </mxCell>
        <mxCell id="dUrUMToWnGyHjIhhfSOw-71" value="" style="sketch=0;aspect=fixed;pointerEvents=1;shadow=0;dashed=0;html=1;strokeColor=none;labelPosition=center;verticalLabelPosition=bottom;verticalAlign=top;align=center;fillColor=#00188D;shape=mxgraph.azure.laptop" vertex="1" parent="1">
          <mxGeometry x="-830" y="2670" width="333.33" height="200" as="geometry" />
        </mxCell>
        <mxCell id="dUrUMToWnGyHjIhhfSOw-72" value="&lt;span style=&quot;font-size: 36px;&quot;&gt;Region - Mumbai(India)&lt;/span&gt;" style="points=[[0,0],[0.25,0],[0.5,0],[0.75,0],[1,0],[1,0.25],[1,0.5],[1,0.75],[1,1],[0.75,1],[0.5,1],[0.25,1],[0,1],[0,0.75],[0,0.5],[0,0.25]];outlineConnect=0;gradientColor=none;html=1;whiteSpace=wrap;fontSize=12;fontStyle=0;container=1;pointerEvents=0;collapsible=0;recursiveResize=0;shape=mxgraph.aws4.group;grIcon=mxgraph.aws4.group_region;strokeColor=#FF3333;fillColor=none;verticalAlign=top;align=left;spacingLeft=30;fontColor=#147EBA;dashed=1;" vertex="1" parent="1">
          <mxGeometry x="-510" y="2590" width="1380" height="1520" as="geometry" />
        </mxCell>
        <mxCell id="dUrUMToWnGyHjIhhfSOw-85" value="" style="edgeStyle=orthogonalEdgeStyle;rounded=0;orthogonalLoop=1;jettySize=auto;html=1;" edge="1" parent="dUrUMToWnGyHjIhhfSOw-72" source="dUrUMToWnGyHjIhhfSOw-97" target="dUrUMToWnGyHjIhhfSOw-58">
          <mxGeometry relative="1" as="geometry">
            <mxPoint x="755" y="620" as="targetPoint" />
          </mxGeometry>
        </mxCell>
        <mxCell id="dUrUMToWnGyHjIhhfSOw-91" value="" style="edgeStyle=orthogonalEdgeStyle;rounded=0;orthogonalLoop=1;jettySize=auto;html=1;entryX=0;entryY=0.5;entryDx=0;entryDy=0;entryPerimeter=0;" edge="1" parent="dUrUMToWnGyHjIhhfSOw-72" source="dUrUMToWnGyHjIhhfSOw-94" target="dUrUMToWnGyHjIhhfSOw-56">
          <mxGeometry relative="1" as="geometry">
            <mxPoint x="325" y="330" as="targetPoint" />
          </mxGeometry>
        </mxCell>
        <mxCell id="dUrUMToWnGyHjIhhfSOw-62" value="&lt;font style=&quot;font-size: 24px;&quot;&gt;Public subnet - 250&amp;nbsp; Frontend servers, 192.168.1.0/16&lt;/font&gt;&lt;div&gt;&lt;br&gt;&lt;/div&gt;" style="points=[[0,0],[0.25,0],[0.5,0],[0.75,0],[1,0],[1,0.25],[1,0.5],[1,0.75],[1,1],[0.75,1],[0.5,1],[0.25,1],[0,1],[0,0.75],[0,0.5],[0,0.25]];outlineConnect=0;gradientColor=none;html=1;whiteSpace=wrap;fontSize=12;fontStyle=0;container=1;pointerEvents=0;collapsible=0;recursiveResize=0;shape=mxgraph.aws4.group;grIcon=mxgraph.aws4.group_security_group;grStroke=0;strokeColor=#00A4A6;fillColor=#E6F6F7;verticalAlign=top;align=left;spacingLeft=30;fontColor=#147EBA;dashed=0;" vertex="1" parent="dUrUMToWnGyHjIhhfSOw-72">
          <mxGeometry x="130" y="500" width="390" height="240" as="geometry" />
        </mxCell>
        <mxCell id="dUrUMToWnGyHjIhhfSOw-59" value="" style="image;aspect=fixed;perimeter=ellipsePerimeter;html=1;align=center;shadow=0;dashed=0;spacingTop=3;image=img/lib/active_directory/web_server.svg;" vertex="1" parent="dUrUMToWnGyHjIhhfSOw-62">
          <mxGeometry x="30" y="125" width="40" height="50" as="geometry" />
        </mxCell>
        <mxCell id="dUrUMToWnGyHjIhhfSOw-60" value="" style="image;aspect=fixed;perimeter=ellipsePerimeter;html=1;align=center;shadow=0;dashed=0;spacingTop=3;image=img/lib/active_directory/web_server.svg;" vertex="1" parent="dUrUMToWnGyHjIhhfSOw-62">
          <mxGeometry x="160" y="95" width="40" height="50" as="geometry" />
        </mxCell>
        <mxCell id="dUrUMToWnGyHjIhhfSOw-61" value="" style="image;aspect=fixed;perimeter=ellipsePerimeter;html=1;align=center;shadow=0;dashed=0;spacingTop=3;image=img/lib/active_directory/web_server.svg;" vertex="1" parent="dUrUMToWnGyHjIhhfSOw-62">
          <mxGeometry x="270" y="160" width="40" height="50" as="geometry" />
        </mxCell>
        <mxCell id="dUrUMToWnGyHjIhhfSOw-78" value="" style="edgeStyle=orthogonalEdgeStyle;rounded=0;orthogonalLoop=1;jettySize=auto;html=1;entryX=1;entryY=0.5;entryDx=0;entryDy=0;entryPerimeter=0;" edge="1" parent="dUrUMToWnGyHjIhhfSOw-72" source="dUrUMToWnGyHjIhhfSOw-58" target="dUrUMToWnGyHjIhhfSOw-56">
          <mxGeometry relative="1" as="geometry">
            <mxPoint x="980.0000000000005" y="360" as="targetPoint" />
            <Array as="points">
              <mxPoint x="980" y="300" />
            </Array>
          </mxGeometry>
        </mxCell>
        <mxCell id="dUrUMToWnGyHjIhhfSOw-58" value="&lt;font style=&quot;font-size: 24px;&quot;&gt;Application subnet - 250 servers&lt;/font&gt;&lt;div&gt;&lt;br&gt;&lt;/div&gt;" style="points=[[0,0],[0.25,0],[0.5,0],[0.75,0],[1,0],[1,0.25],[1,0.5],[1,0.75],[1,1],[0.75,1],[0.5,1],[0.25,1],[0,1],[0,0.75],[0,0.5],[0,0.25]];outlineConnect=0;gradientColor=none;html=1;whiteSpace=wrap;fontSize=12;fontStyle=0;container=1;pointerEvents=0;collapsible=0;recursiveResize=0;shape=mxgraph.aws4.group;grIcon=mxgraph.aws4.group_security_group;grStroke=0;strokeColor=#7AA116;fillColor=#F2F6E8;verticalAlign=top;align=left;spacingLeft=30;fontColor=#248814;dashed=0;" vertex="1" parent="dUrUMToWnGyHjIhhfSOw-72">
          <mxGeometry x="780" y="530" width="400" height="240" as="geometry" />
        </mxCell>
        <mxCell id="dUrUMToWnGyHjIhhfSOw-111" value="" style="image;aspect=fixed;perimeter=ellipsePerimeter;html=1;align=center;shadow=0;dashed=0;fontColor=#4277BB;labelBackgroundColor=default;fontSize=12;spacingTop=3;image=img/lib/ibm/applications/app_server.svg;" vertex="1" parent="dUrUMToWnGyHjIhhfSOw-58">
          <mxGeometry x="90" y="80" width="60" height="60" as="geometry" />
        </mxCell>
        <mxCell id="dUrUMToWnGyHjIhhfSOw-113" value="&lt;span style=&quot;color: rgb(36, 136, 20); font-family: Helvetica; font-style: normal; font-variant-ligatures: normal; font-variant-caps: normal; font-weight: 400; letter-spacing: normal; orphans: 2; text-align: left; text-indent: 0px; text-transform: none; widows: 2; word-spacing: 0px; -webkit-text-stroke-width: 0px; white-space: normal; background-color: rgb(236, 236, 236); text-decoration-thickness: initial; text-decoration-style: initial; text-decoration-color: initial; float: none; display: inline !important;&quot;&gt;&lt;font style=&quot;font-size: 24px;&quot;&gt;192.168.1.60&lt;/font&gt;&lt;/span&gt;" style="text;whiteSpace=wrap;html=1;" vertex="1" parent="dUrUMToWnGyHjIhhfSOw-58">
          <mxGeometry x="70" y="145" width="160" height="40" as="geometry" />
        </mxCell>
        <mxCell id="dUrUMToWnGyHjIhhfSOw-56" value="" style="outlineConnect=0;dashed=0;verticalLabelPosition=bottom;verticalAlign=top;align=center;html=1;shape=mxgraph.aws3.internet_gateway;fillColor=#F58536;gradientColor=none;" vertex="1" parent="dUrUMToWnGyHjIhhfSOw-72">
          <mxGeometry x="440" y="180" width="299" height="240" as="geometry" />
        </mxCell>
        <mxCell id="dUrUMToWnGyHjIhhfSOw-57" value="&lt;font style=&quot;font-size: 24px;&quot;&gt;&amp;nbsp;Database Subnet&lt;/font&gt;" style="shape=mxgraph.ibm.box;prType=subnet;fontStyle=0;verticalAlign=top;align=left;spacingLeft=32;spacingTop=4;fillColor=#E6F0E2;rounded=0;whiteSpace=wrap;html=1;strokeColor=#00882B;strokeWidth=1;dashed=0;container=1;spacing=-4;collapsible=0;expand=0;recursiveResize=0;" vertex="1" parent="dUrUMToWnGyHjIhhfSOw-72">
          <mxGeometry x="780" y="920" width="410" height="310" as="geometry" />
        </mxCell>
        <mxCell id="dUrUMToWnGyHjIhhfSOw-63" value="" style="sketch=0;points=[[0,0,0],[0.25,0,0],[0.5,0,0],[0.75,0,0],[1,0,0],[0,1,0],[0.25,1,0],[0.5,1,0],[0.75,1,0],[1,1,0],[0,0.25,0],[0,0.5,0],[0,0.75,0],[1,0.25,0],[1,0.5,0],[1,0.75,0]];outlineConnect=0;fontColor=#232F3E;fillColor=#C925D1;strokeColor=#ffffff;dashed=0;verticalLabelPosition=bottom;verticalAlign=top;align=center;html=1;fontSize=12;fontStyle=0;aspect=fixed;shape=mxgraph.aws4.resourceIcon;resIcon=mxgraph.aws4.rds;" vertex="1" parent="dUrUMToWnGyHjIhhfSOw-57">
          <mxGeometry x="40" y="82" width="78" height="78" as="geometry" />
        </mxCell>
        <mxCell id="dUrUMToWnGyHjIhhfSOw-64" value="" style="sketch=0;points=[[0,0,0],[0.25,0,0],[0.5,0,0],[0.75,0,0],[1,0,0],[0,1,0],[0.25,1,0],[0.5,1,0],[0.75,1,0],[1,1,0],[0,0.25,0],[0,0.5,0],[0,0.75,0],[1,0.25,0],[1,0.5,0],[1,0.75,0]];outlineConnect=0;fontColor=#232F3E;fillColor=#C925D1;strokeColor=#ffffff;dashed=0;verticalLabelPosition=bottom;verticalAlign=top;align=center;html=1;fontSize=12;fontStyle=0;aspect=fixed;shape=mxgraph.aws4.resourceIcon;resIcon=mxgraph.aws4.rds;" vertex="1" parent="dUrUMToWnGyHjIhhfSOw-57">
          <mxGeometry x="220" y="82" width="78" height="78" as="geometry" />
        </mxCell>
        <mxCell id="dUrUMToWnGyHjIhhfSOw-109" value="&lt;span style=&quot;color: rgb(36, 136, 20); font-family: Helvetica; font-style: normal; font-variant-ligatures: normal; font-variant-caps: normal; font-weight: 400; letter-spacing: normal; orphans: 2; text-align: left; text-indent: 0px; text-transform: none; widows: 2; word-spacing: 0px; -webkit-text-stroke-width: 0px; white-space: normal; background-color: rgb(236, 236, 236); text-decoration-thickness: initial; text-decoration-style: initial; text-decoration-color: initial; float: none; display: inline !important;&quot;&gt;&lt;font style=&quot;font-size: 24px;&quot;&gt;DB Server2&lt;/font&gt;&lt;/span&gt;" style="text;whiteSpace=wrap;html=1;" vertex="1" parent="dUrUMToWnGyHjIhhfSOw-57">
          <mxGeometry x="25" y="190" width="160" height="40" as="geometry" />
        </mxCell>
        <mxCell id="dUrUMToWnGyHjIhhfSOw-110" value="&lt;span style=&quot;color: rgb(36, 136, 20); font-family: Helvetica; font-style: normal; font-variant-ligatures: normal; font-variant-caps: normal; font-weight: 400; letter-spacing: normal; orphans: 2; text-align: left; text-indent: 0px; text-transform: none; widows: 2; word-spacing: 0px; -webkit-text-stroke-width: 0px; white-space: normal; background-color: rgb(236, 236, 236); text-decoration-thickness: initial; text-decoration-style: initial; text-decoration-color: initial; float: none; display: inline !important;&quot;&gt;&lt;font style=&quot;font-size: 24px;&quot;&gt;DB Server1&lt;/font&gt;&lt;/span&gt;" style="text;whiteSpace=wrap;html=1;" vertex="1" parent="dUrUMToWnGyHjIhhfSOw-57">
          <mxGeometry x="210" y="180" width="160" height="40" as="geometry" />
        </mxCell>
        <mxCell id="dUrUMToWnGyHjIhhfSOw-94" value="&lt;span style=&quot;color: rgb(36, 136, 20); font-family: Helvetica; font-style: normal; font-variant-ligatures: normal; font-variant-caps: normal; font-weight: 400; letter-spacing: normal; orphans: 2; text-align: left; text-indent: 0px; text-transform: none; widows: 2; word-spacing: 0px; -webkit-text-stroke-width: 0px; white-space: normal; background-color: rgb(236, 236, 236); text-decoration-thickness: initial; text-decoration-style: initial; text-decoration-color: initial; float: none; display: inline !important;&quot;&gt;&lt;font style=&quot;font-size: 24px;&quot;&gt;HTTP&lt;/font&gt;&lt;/span&gt;" style="text;whiteSpace=wrap;html=1;" vertex="1" parent="dUrUMToWnGyHjIhhfSOw-72">
          <mxGeometry x="280" y="240" width="160" height="40" as="geometry" />
        </mxCell>
        <mxCell id="dUrUMToWnGyHjIhhfSOw-96" value="" style="edgeStyle=orthogonalEdgeStyle;rounded=0;orthogonalLoop=1;jettySize=auto;html=1;entryX=0;entryY=0.5;entryDx=0;entryDy=0;entryPerimeter=0;" edge="1" parent="dUrUMToWnGyHjIhhfSOw-72" source="dUrUMToWnGyHjIhhfSOw-62" target="dUrUMToWnGyHjIhhfSOw-94">
          <mxGeometry relative="1" as="geometry">
            <mxPoint x="-135" y="3090" as="sourcePoint" />
            <mxPoint x="-20" y="2890" as="targetPoint" />
            <Array as="points">
              <mxPoint x="260" y="260" />
            </Array>
          </mxGeometry>
        </mxCell>
        <mxCell id="dUrUMToWnGyHjIhhfSOw-97" value="&lt;span style=&quot;color: rgb(36, 136, 20); font-family: Helvetica; font-style: normal; font-variant-ligatures: normal; font-variant-caps: normal; font-weight: 400; letter-spacing: normal; orphans: 2; text-align: left; text-indent: 0px; text-transform: none; widows: 2; word-spacing: 0px; -webkit-text-stroke-width: 0px; white-space: normal; background-color: rgb(236, 236, 236); text-decoration-thickness: initial; text-decoration-style: initial; text-decoration-color: initial; float: none; display: inline !important;&quot;&gt;&lt;font style=&quot;font-size: 24px;&quot;&gt;PORT 8080&lt;/font&gt;&lt;/span&gt;" style="text;whiteSpace=wrap;html=1;" vertex="1" parent="dUrUMToWnGyHjIhhfSOw-72">
          <mxGeometry x="540" y="570" width="160" height="40" as="geometry" />
        </mxCell>
        <mxCell id="dUrUMToWnGyHjIhhfSOw-98" value="" style="edgeStyle=orthogonalEdgeStyle;rounded=0;orthogonalLoop=1;jettySize=auto;html=1;" edge="1" parent="dUrUMToWnGyHjIhhfSOw-72" source="dUrUMToWnGyHjIhhfSOw-62" target="dUrUMToWnGyHjIhhfSOw-97">
          <mxGeometry relative="1" as="geometry">
            <mxPoint x="60" y="3210" as="sourcePoint" />
            <mxPoint x="295" y="3210" as="targetPoint" />
          </mxGeometry>
        </mxCell>
        <mxCell id="dUrUMToWnGyHjIhhfSOw-101" value="" style="edgeStyle=orthogonalEdgeStyle;rounded=0;orthogonalLoop=1;jettySize=auto;html=1;entryX=0.011;entryY=0.849;entryDx=0;entryDy=0;entryPerimeter=0;" edge="1" parent="dUrUMToWnGyHjIhhfSOw-72" source="dUrUMToWnGyHjIhhfSOw-99" target="dUrUMToWnGyHjIhhfSOw-57">
          <mxGeometry relative="1" as="geometry">
            <mxPoint x="485" y="1109.3999999999996" as="targetPoint" />
          </mxGeometry>
        </mxCell>
        <mxCell id="dUrUMToWnGyHjIhhfSOw-99" value="" style="shadow=0;dashed=0;html=1;strokeColor=none;fillColor=#4495D1;labelPosition=center;verticalLabelPosition=bottom;verticalAlign=top;align=center;outlineConnect=0;shape=mxgraph.veeam.portal_admin;" vertex="1" parent="dUrUMToWnGyHjIhhfSOw-72">
          <mxGeometry x="130" y="1020" width="210" height="178.8" as="geometry" />
        </mxCell>
        <mxCell id="dUrUMToWnGyHjIhhfSOw-103" value="&lt;span style=&quot;color: rgb(36, 136, 20); font-family: Helvetica; font-style: normal; font-variant-ligatures: normal; font-variant-caps: normal; font-weight: 400; letter-spacing: normal; orphans: 2; text-align: left; text-indent: 0px; text-transform: none; widows: 2; word-spacing: 0px; -webkit-text-stroke-width: 0px; white-space: normal; background-color: rgb(236, 236, 236); text-decoration-thickness: initial; text-decoration-style: initial; text-decoration-color: initial; float: none; display: inline !important;&quot;&gt;&lt;font style=&quot;font-size: 24px;&quot;&gt;DB ADMIN - 198.168.2.22&lt;/font&gt;&lt;/span&gt;" style="text;whiteSpace=wrap;html=1;" vertex="1" parent="dUrUMToWnGyHjIhhfSOw-72">
          <mxGeometry x="140" y="1240" width="160" height="40" as="geometry" />
        </mxCell>
        <mxCell id="dUrUMToWnGyHjIhhfSOw-104" value="&lt;span style=&quot;color: rgb(36, 136, 20); font-family: Helvetica; font-style: normal; font-variant-ligatures: normal; font-variant-caps: normal; font-weight: 400; letter-spacing: normal; orphans: 2; text-align: left; text-indent: 0px; text-transform: none; widows: 2; word-spacing: 0px; -webkit-text-stroke-width: 0px; white-space: normal; background-color: rgb(236, 236, 236); text-decoration-thickness: initial; text-decoration-style: initial; text-decoration-color: initial; float: none; display: inline !important;&quot;&gt;&lt;font style=&quot;font-size: 24px;&quot;&gt;MYSQL&lt;/font&gt;&lt;/span&gt;" style="text;whiteSpace=wrap;html=1;" vertex="1" parent="dUrUMToWnGyHjIhhfSOw-72">
          <mxGeometry x="990" y="820" width="160" height="40" as="geometry" />
        </mxCell>
        <mxCell id="dUrUMToWnGyHjIhhfSOw-88" value="" style="edgeStyle=orthogonalEdgeStyle;rounded=0;orthogonalLoop=1;jettySize=auto;html=1;entryX=0.5;entryY=0;entryDx=0;entryDy=0;entryPerimeter=0;exitX=0.5;exitY=1;exitDx=0;exitDy=0;" edge="1" parent="dUrUMToWnGyHjIhhfSOw-72" source="dUrUMToWnGyHjIhhfSOw-113" target="dUrUMToWnGyHjIhhfSOw-64">
          <mxGeometry relative="1" as="geometry">
            <mxPoint x="1030.0000000000005" y="740" as="sourcePoint" />
            <mxPoint x="1084" y="1027" as="targetPoint" />
            <Array as="points">
              <mxPoint x="1030" y="715" />
              <mxPoint x="1030" y="980" />
              <mxPoint x="1039" y="980" />
            </Array>
          </mxGeometry>
        </mxCell>
        <mxCell id="dUrUMToWnGyHjIhhfSOw-106" value="" style="edgeStyle=orthogonalEdgeStyle;rounded=0;orthogonalLoop=1;jettySize=auto;html=1;entryX=0;entryY=0.5;entryDx=0;entryDy=0;entryPerimeter=0;" edge="1" parent="dUrUMToWnGyHjIhhfSOw-72" source="dUrUMToWnGyHjIhhfSOw-62" target="dUrUMToWnGyHjIhhfSOw-63">
          <mxGeometry relative="1" as="geometry">
            <mxPoint x="325" y="910" as="targetPoint" />
            <Array as="points">
              <mxPoint x="325" y="920" />
              <mxPoint x="670" y="920" />
              <mxPoint x="670" y="1041" />
            </Array>
          </mxGeometry>
        </mxCell>
        <mxCell id="dUrUMToWnGyHjIhhfSOw-93" value="&lt;span style=&quot;color: rgb(36, 136, 20); font-family: Helvetica; font-style: normal; font-variant-ligatures: normal; font-variant-caps: normal; font-weight: 400; letter-spacing: normal; orphans: 2; text-align: left; text-indent: 0px; text-transform: none; widows: 2; word-spacing: 0px; -webkit-text-stroke-width: 0px; white-space: normal; background-color: rgb(236, 236, 236); text-decoration-thickness: initial; text-decoration-style: initial; text-decoration-color: initial; float: none; display: inline !important;&quot;&gt;&lt;font style=&quot;font-size: 24px;&quot;&gt;SSH&lt;/font&gt;&lt;/span&gt;" style="text;whiteSpace=wrap;html=1;" vertex="1" parent="1">
          <mxGeometry x="320" y="2850" width="160" height="40" as="geometry" />
        </mxCell>
        <mxCell id="dUrUMToWnGyHjIhhfSOw-102" value="&lt;span style=&quot;color: rgb(36, 136, 20); font-family: Helvetica; font-style: normal; font-variant-ligatures: normal; font-variant-caps: normal; font-weight: 400; letter-spacing: normal; orphans: 2; text-align: left; text-indent: 0px; text-transform: none; widows: 2; word-spacing: 0px; -webkit-text-stroke-width: 0px; white-space: normal; background-color: rgb(236, 236, 236); text-decoration-thickness: initial; text-decoration-style: initial; text-decoration-color: initial; float: none; display: inline !important;&quot;&gt;&lt;font style=&quot;font-size: 24px;&quot;&gt;SSH&lt;/font&gt;&lt;/span&gt;" style="text;whiteSpace=wrap;html=1;" vertex="1" parent="1">
          <mxGeometry x="-60" y="3640" width="160" height="40" as="geometry" />
        </mxCell>
        <mxCell id="dUrUMToWnGyHjIhhfSOw-107" value="&lt;span style=&quot;color: rgb(36, 136, 20); font-family: Helvetica; font-style: normal; font-variant-ligatures: normal; font-variant-caps: normal; font-weight: 400; letter-spacing: normal; orphans: 2; text-align: left; text-indent: 0px; text-transform: none; widows: 2; word-spacing: 0px; -webkit-text-stroke-width: 0px; white-space: normal; background-color: rgb(236, 236, 236); text-decoration-thickness: initial; text-decoration-style: initial; text-decoration-color: initial; float: none; display: inline !important;&quot;&gt;&lt;font style=&quot;font-size: 24px;&quot;&gt;MYSQL&lt;/font&gt;&lt;/span&gt;" style="text;whiteSpace=wrap;html=1;" vertex="1" parent="1">
          <mxGeometry x="-30" y="3480" width="160" height="40" as="geometry" />
        </mxCell>
        <mxCell id="dUrUMToWnGyHjIhhfSOw-119" value="" style="rounded=1;arcSize=10;dashed=1;strokeColor=#F59D56;fillColor=none;gradientColor=none;dashPattern=8 4;strokeWidth=2;" vertex="1" parent="1">
          <mxGeometry x="-420" y="2730" width="1180" height="1220" as="geometry" />
        </mxCell>
        <mxCell id="dUrUMToWnGyHjIhhfSOw-120" value="&lt;font style=&quot;font-size: 48px;&quot;&gt;Question2&amp;nbsp; - IBM VPC&lt;/font&gt;&amp;nbsp;" style="text;html=1;align=center;verticalAlign=middle;whiteSpace=wrap;rounded=0;" vertex="1" parent="1">
          <mxGeometry x="-760" y="2430" width="540" height="30" as="geometry" />
        </mxCell>
        <mxCell id="dUrUMToWnGyHjIhhfSOw-121" value="&lt;font style=&quot;font-size: 48px;&quot;&gt;Question1&lt;/font&gt;&amp;nbsp;" style="text;html=1;align=center;verticalAlign=middle;whiteSpace=wrap;rounded=0;" vertex="1" parent="1">
          <mxGeometry x="-720" y="-160" width="60" height="30" as="geometry" />
        </mxCell>
      </root>
    </mxGraphModel>
  </diagram>
</mxfile>
